<svg xmlns="http://www.w3.org/2000/svg" version="1.1" xmlns:xlink="http://www.w3.org/1999/xlink" xmlns:svgjs="http://svgjs.dev/svgjs" width="2000" height="2250" viewBox="0 0 2000 2250"><g transform="matrix(1,0,0,1,0,0)"><svg viewBox="0 0 320 360" data-background-color="#000000" preserveAspectRatio="xMidYMid meet" height="2250" width="2000" xmlns="http://www.w3.org/2000/svg" xmlns:xlink="http://www.w3.org/1999/xlink"><g id="tight-bounds" transform="matrix(1,0,0,1,0,0)"><svg viewBox="0 0 320 360" height="360" width="320"><g><svg></svg></g><g><svg viewBox="0 0 320 360" height="360" width="320"><g><path transform="translate(-25.80645,-5.80645) scale(10.32258,10.32258)" d="M18 33.5c8.55 0 15.5-6.95 15.5-15.5 0-8.55-6.95-15.5-15.5-15.5-8.55 0-15.5 6.95-15.5 15.5 0 8.55 6.95 15.5 15.5 15.5zM18.5 32.47v-1c7.04-0.26 12.71-5.93 12.97-12.97h1c-0.26 7.6-6.37 13.71-13.97 13.97zM18.5 3.53c7.6 0.26 13.71 6.37 13.97 13.97h-1c-0.26-7.04-5.93-12.71-12.97-12.97zM30.5 18c0 6.89-5.61 12.5-12.5 12.5-6.89 0-12.5-5.61-12.5-12.5 0-6.89 5.61-12.5 12.5-12.5 6.89 0 12.5 5.61 12.5 12.5zM17.5 3.53v1c-7.04 0.26-12.71 5.93-12.97 12.97h-1c0.26-7.6 6.37-13.71 13.97-13.97zM4.53 18.5c0.26 7.04 5.93 12.71 12.97 12.97v1c-7.6-0.26-13.71-6.37-13.97-13.97z" fill="#ffffff" fill-rule="nonzero" stroke="none" stroke-width="1" stroke-linecap="butt" stroke-linejoin="miter" stroke-miterlimit="10" stroke-dasharray="" stroke-dashoffset="0" font-family="none" font-weight="none" font-size="none" text-anchor="none" style="mix-blend-mode: normal" data-fill-palette-color="tertiary"></path></g><g transform="matrix(1,0,0,1,93.05198444128223,90)"><svg viewBox="0 0 133.89603111743554 180" height="180" width="133.89603111743554"><g><svg viewBox="0 0 192 258.1107125549422" height="180" width="133.89603111743554"><g transform="matrix(1,0,0,1,0,107.32600123174173)"><svg viewBox="0 0 192 150.7847113232005" height="150.7847113232005" width="192"><g id="textblocktransform"><svg viewBox="0 0 192 150.7847113232005" height="150.7847113232005" width="192" id="textblock"><g><svg viewBox="0 0 192 81.32606825351306" height="81.32606825351306" width="192"><g transform="matrix(1,0,0,1,0,0)"><svg width="192" viewBox="1.98 -35.55 85.11999999999999 36.059999999999995" height="81.32606825351306" data-palette-color="#ffffff"><path d="M16.14 0L1.98 0 1.98-3.08 5.96-3.76 5.96-31.76 1.98-32.45 1.98-35.55 5.96-35.55 15.89-35.55Q20.61-35.55 24.11-33.3 27.61-31.05 29.57-27.12 31.52-23.19 31.52-18.14L31.52-18.14 31.52-17.38Q31.52-12.45 29.64-8.51 27.76-4.57 24.3-2.28 20.85 0 16.14 0L16.14 0ZM10.77-31.76L10.77-3.76 15.89-3.76Q19.26-3.76 21.68-5.6 24.1-7.45 25.4-10.53 26.71-13.62 26.71-17.38L26.71-17.38 26.71-18.19Q26.71-22.07 25.4-25.13 24.1-28.2 21.68-29.98 19.26-31.76 15.89-31.76L15.89-31.76 10.77-31.76ZM46.95 0.51L46.95 0.51Q43.28 0.51 40.57-1.16 37.86-2.83 36.39-5.81 34.91-8.79 34.91-12.7L34.91-12.7 34.91-13.77Q34.91-17.53 36.46-20.5 38.01-23.46 40.59-25.18 43.16-26.9 46.21-26.9L46.21-26.9Q49.78-26.9 52.18-25.44 54.59-23.97 55.81-21.33 57.03-18.68 57.03-15.09L57.03-15.09 57.03-12.08 39.89-12.08 39.82-11.96Q39.87-9.42 40.71-7.46 41.55-5.49 43.14-4.37 44.72-3.25 46.95-3.25L46.95-3.25Q49.39-3.25 51.23-3.94 53.07-4.64 54.42-5.86L54.42-5.86 56.3-2.73Q54.88-1.37 52.55-0.43 50.22 0.51 46.95 0.51ZM39.99-15.97L40.04-15.84 52.22-15.84 52.22-16.48Q52.22-18.38 51.55-19.89 50.88-21.39 49.55-22.25 48.22-23.12 46.21-23.12L46.21-23.12Q44.6-23.12 43.28-22.18 41.97-21.24 41.11-19.63 40.26-18.02 39.99-15.97L39.99-15.97ZM75.39 0L71.16 0 61.76-22.95 59.03-23.32 59.03-26.42 70.11-26.42 70.11-23.32 66.67-22.83 72.53-7.79 73.21-5.66 73.36-5.66 74.14-7.79 79.58-22.83 76.04-23.32 76.04-26.42 87.1-26.42 87.1-23.32 84.32-22.95 75.39 0Z" opacity="1" transform="matrix(1,0,0,1,0,0)" fill="#ffffff" class="wordmark-text-0" data-fill-palette-color="primary" id="text-0"></path></svg></g></svg></g><g transform="matrix(1,0,0,1,71.87017233734274,100.52520114252941)"><svg viewBox="0 0 48.25965532531453 50.25951018067108" height="50.25951018067108" width="48.25965532531453"><g transform="matrix(1,0,0,1,0,0)"><svg width="48.25965532531453" viewBox="3.66 -39.11 44.78 46.63" height="50.25951018067108" data-palette-color="#ffffff"><path d="M3.66-13.01L3.66-16.38 23.51-27.93 23.51-23.32 8.74-14.7 23.51-6.08 23.51-1.46 3.66-13.01ZM30.76 7.52L43.97-39.11 48.44-39.11 35.23 7.52 30.76 7.52Z" opacity="1" transform="matrix(1,0,0,1,0,0)" fill="#ffffff" class="slogan-text-1" data-fill-palette-color="secondary" id="text-1"></path></svg></g></svg></g></svg></g></svg></g><g transform="matrix(1,0,0,1,36.672,0)"><svg viewBox="0 0 118.656 88.12686834272537" height="88.12686834272537" width="118.656"><g><svg xmlns="http://www.w3.org/2000/svg" xmlns:xlink="http://www.w3.org/1999/xlink" version="1.1" x="0" y="0" viewBox="7.5 18.435 85.001 63.131" enable-background="new 0 0 100 100" xml:space="preserve" height="88.12686834272537" width="118.656" class="icon-icon-0" data-fill-palette-color="accent" id="icon-0"><g fill="#ffffff" data-fill-palette-color="accent"><path d="M89.405 18.435H10.595c-1.706 0-3.095 1.389-3.095 3.095v56.941c0 1.706 1.389 3.095 3.095 3.095h78.811c1.707 0 3.095-1.389 3.095-3.095V77.14 32.027 21.529C92.5 19.823 91.112 18.435 89.405 18.435zM10.595 19.673h78.811c1.023 0 1.857 0.833 1.857 1.856v9.075c-0.068-0.01-0.136-0.021-0.207-0.021H8.951c-0.073 0-0.143 0.011-0.213 0.021v-9.076C8.738 20.506 9.571 19.673 10.595 19.673zM91.263 77.14c0 0.114-0.093 0.206-0.207 0.206H8.951c-0.113 0-0.206-0.092-0.206-0.206V32.027c0-0.113 0.093-0.206 0.206-0.206h82.104c0.114 0 0.207 0.093 0.207 0.206V77.14zM89.405 80.327H10.595c-0.992 0-1.798-0.784-1.848-1.764 0.067 0.01 0.135 0.021 0.204 0.021h82.104c0.068 0 0.133-0.011 0.197-0.02C91.202 79.544 90.396 80.327 89.405 80.327z" fill="#ffffff" data-fill-palette-color="accent"></path><path d="M28.178 27.787c1.45 0 2.63-1.18 2.63-2.63 0-1.451-1.18-2.631-2.63-2.631s-2.631 1.18-2.631 2.631C25.547 26.607 26.728 27.787 28.178 27.787zM28.178 23.765c0.768 0 1.393 0.624 1.393 1.393 0 0.768-0.625 1.393-1.393 1.393-0.769 0-1.393-0.625-1.393-1.393C26.785 24.389 27.409 23.765 28.178 23.765z" fill="#ffffff" data-fill-palette-color="accent"></path><path d="M21.458 27.787c1.451 0 2.631-1.18 2.631-2.63 0-1.451-1.18-2.631-2.631-2.631-1.45 0-2.63 1.18-2.63 2.631C18.828 26.607 20.008 27.787 21.458 27.787zM21.458 23.765c0.769 0 1.393 0.624 1.393 1.393 0 0.768-0.624 1.393-1.393 1.393-0.768 0-1.393-0.625-1.393-1.393C20.065 24.389 20.69 23.765 21.458 23.765z" fill="#ffffff" data-fill-palette-color="accent"></path><path d="M14.738 27.787c1.451 0 2.631-1.18 2.631-2.63 0-1.451-1.18-2.631-2.631-2.631-1.45 0-2.63 1.18-2.63 2.631C12.108 26.607 13.288 27.787 14.738 27.787zM14.738 23.765c0.769 0 1.393 0.624 1.393 1.393 0 0.768-0.624 1.393-1.393 1.393-0.768 0-1.393-0.625-1.393-1.393C13.346 24.389 13.971 23.765 14.738 23.765z" fill="#ffffff" data-fill-palette-color="accent"></path></g><path d="M26.598 65.915c-0.624 0-1.395-0.429-2.289-1.276-1.605-1.519-2.16-2.371-1.2-3.405l8.79-8.811-8.774-8.782c-0.676-0.676-0.57-1.195-0.401-1.57 0.242-0.544 0.814-1.117 1.479-1.781 0.829-0.829 1.542-1.542 2.241-1.542 0.342 0 0.679 0.172 1.033 0.526l11.769 11.755c0.311 0.254 0.521 0.659 0.564 1.134 0.048 0.537-0.134 1.152-0.452 1.533L27.53 65.514C27.243 65.787 26.941 65.915 26.598 65.915zM23.846 42.57c-0.009 0 0.027 0.068 0.154 0.194l9.211 9.221c0.241 0.242 0.241 0.633 0 0.875L24 62.093c-0.093 0.1-0.125 0.147-0.133 0.166 0.012 0.047 0.125 0.377 1.292 1.48 0.979 0.927 1.42 0.938 1.438 0.938v0.619l0.01-0.62c-0.001 0.001-0.001 0.001-0.001 0.001-0.003 0 0.02-0.012 0.061-0.05l11.777-11.767c0.061-0.077 0.151-0.357 0.131-0.589-0.013-0.145-0.063-0.246-0.162-0.328L26.601 40.148c-0.144-0.143-0.215-0.171-0.215-0.171-0.182 0.06-0.886 0.764-1.307 1.184-0.531 0.532-1.077 1.078-1.227 1.413C23.85 42.571 23.848 42.57 23.846 42.57z" fill="#ffffff" data-fill-palette-color="accent"></path><path d="M55.834 71.436H40.498c-1.594 0-1.92-1.234-1.92-3.088s0.326-3.088 1.92-3.088h15.336c1.503 0 1.787 1.085 1.787 3.088C57.621 70.396 57.346 71.436 55.834 71.436zM40.498 66.497c-0.366 0-0.683 0-0.683 1.851s0.316 1.851 0.683 1.851h15.336c0.354 0 0.55 0 0.55-1.851s-0.219-1.851-0.55-1.851H40.498z" fill="#ffffff" data-fill-palette-color="accent"></path></svg></g></svg></g><g></g></svg></g></svg></g></svg></g><defs></defs></svg><rect width="320" height="360" fill="none" stroke="none" visibility="hidden"></rect></g></svg></g></svg>